<svg width="39" height="39" viewBox="0 0 39 39" fill="none" xmlns="http://www.w3.org/2000/svg">
<circle cx="19.9032" cy="19.9032" r="18.5" fill="#D94F00" stroke="white" stroke-width="1.19355"/>
<path fill-rule="evenodd" clip-rule="evenodd" d="M7.52661 7.54529H31.9479V32.2608H7.52661V7.54529Z" fill="#D94F00"/>
<path fill-rule="evenodd" clip-rule="evenodd" d="M21.4203 12.3358H27.6807V18.6088H21.4203V12.3358ZM13.8518 21.7819V22.3956H14.9308V25.6422H15.6748V22.3708H16.6793V21.7571L13.8518 21.7823V21.7819ZM13.2961 22.5427V21.929C12.6992 21.6592 12.0128 21.5776 11.31 21.929C10.1575 22.4444 10.1163 24.9962 11.2693 25.4951C11.9313 25.8305 13.3121 25.675 13.4512 25.3804V23.3603H12.0784V23.892H12.6828V24.9554C10.6968 25.9205 10.329 21.283 13.2961 22.5427ZM17.8895 23.8592H18.6003C19.1887 23.884 19.3442 24.9962 18.5759 24.9878H17.8895V23.8592ZM17.8895 22.2972H18.6003C19.1887 22.4036 18.9765 23.2787 18.5759 23.3031H17.8895V22.2972ZM17.1539 21.7004V25.6095H19.1072C20.1042 25.2496 20.1454 23.7041 19.1072 23.5402C20.0634 23.4342 20.1126 21.6756 18.4616 21.6756L17.1539 21.7004ZM20.6027 22.7962V23.3767C21.1256 23.2295 22.2618 22.8206 22.1554 23.6877C21.1584 23.6221 20.48 23.802 20.3657 24.4233C20.1778 25.765 21.6161 25.8957 22.221 25.2333V25.5523H22.9074V23.1968C22.7359 22.436 21.6002 22.338 20.6027 22.7962ZM21.1828 24.3094C21.3383 24.1047 21.8368 24.1127 22.1718 24.211V24.7263C21.6245 25.3148 20.7418 25.0454 21.1832 24.3089L21.1828 24.3094ZM24.3298 23.4914C24.5097 23.2951 25.466 22.9269 25.6131 23.4914V25.5687H26.381V23.3687C26.2175 22.4523 25.3428 22.2888 24.2806 22.9105V22.5671H23.5534V25.5851H24.3214L24.3298 23.4914ZM28.792 22.5343L27.787 23.8836L28.8496 25.5439L29.7731 25.5195L28.6046 23.9248L29.6588 22.5587L28.7925 22.5343H28.792ZM26.9535 21.5444H27.7135V25.5439H26.9531V21.5448L26.9535 21.5444Z" fill="white"/>
<path fill-rule="evenodd" clip-rule="evenodd" d="M21.4207 12.3358H27.6811V18.6088H21.4207V12.3358Z" fill="white"/>
</svg>
