<svg width="54" height="53" viewBox="0 0 54 53" fill="none" xmlns="http://www.w3.org/2000/svg">
<ellipse cx="27.0837" cy="26.1989" rx="26.1688" ry="25.9028" fill="#32A7E2"/>
<path fill-rule="evenodd" clip-rule="evenodd" d="M23.5946 31.3796C22.6351 31.3796 21.8588 32.1567 21.8588 33.1065C21.8588 34.0563 22.6351 34.8334 23.5946 34.8334C24.5542 34.8334 25.3392 34.0563 25.3392 33.1065C25.3392 32.1567 24.5542 31.3796 23.5946 31.3796ZM18.3608 17.5647V19.2916H20.1054L23.2457 25.845L22.0681 27.9604C21.9285 28.2021 21.85 28.4871 21.85 28.7893C21.85 29.739 22.6351 30.5161 23.5946 30.5161H34.0621V28.7893H23.961C23.8388 28.7893 23.7429 28.6943 23.7429 28.5734L23.7691 28.4698L24.5541 27.0624H31.0527C31.7069 27.0624 32.2826 26.7084 32.5792 26.1731L35.702 20.5694C35.7718 20.4485 35.8067 20.3018 35.8067 20.155C35.8067 19.6801 35.4142 19.2916 34.9344 19.2916H22.0332L21.2132 17.5647H18.3608ZM32.3174 31.3796C31.3579 31.3796 30.5815 32.1567 30.5815 33.1065C30.5815 34.0563 31.3579 34.8334 32.3174 34.8334C33.2769 34.8334 34.062 34.0563 34.062 33.1065C34.062 32.1567 33.2769 31.3796 32.3174 31.3796Z" fill="white"/>
</svg>
